<?xml version="1.0" encoding="utf-8" standalone="no"?>
<!DOCTYPE svg PUBLIC "-//W3C//DTD SVG 1.1//EN"
  "http://www.w3.org/Graphics/SVG/1.1/DTD/svg11.dtd">
<svg xmlns:xlink="http://www.w3.org/1999/xlink" width="432pt" height="288pt" viewBox="0 0 432 288" xmlns="http://www.w3.org/2000/svg" version="1.1">
 <metadata>
  <rdf:RDF xmlns:dc="http://purl.org/dc/elements/1.1/" xmlns:cc="http://creativecommons.org/ns#" xmlns:rdf="http://www.w3.org/1999/02/22-rdf-syntax-ns#">
   <cc:Work>
    <dc:type rdf:resource="http://purl.org/dc/dcmitype/StillImage"/>
    <dc:date>2025-03-03T14:08:03.324479</dc:date>
    <dc:format>image/svg+xml</dc:format>
    <dc:creator>
     <cc:Agent>
      <dc:title>Matplotlib v3.7.5, https://matplotlib.org/</dc:title>
     </cc:Agent>
    </dc:creator>
   </cc:Work>
  </rdf:RDF>
 </metadata>
 <defs>
  <style type="text/css">*{stroke-linejoin: round; stroke-linecap: butt}</style>
 </defs>
 <g id="figure_1">
  <g id="patch_1">
   <path d="M 0 288 
L 432 288 
L 432 0 
L 0 0 
L 0 288 
z
" style="fill: none"/>
  </g>
  <g id="axes_1">
   <g id="patch_2">
    <path d="M 330.12 143.28 
C 330.12 129.00302 327.307746 114.864866 321.844183 101.674657 
C 316.380619 88.484448 308.371998 76.4987 298.276649 66.403351 
C 288.1813 56.308002 276.195552 48.299381 263.005343 42.835817 
C 249.815134 37.372254 235.67698 34.56 221.4 34.56 
C 207.12302 34.56 192.984866 37.372254 179.794657 42.835817 
C 166.604448 48.299381 154.6187 56.308002 144.523351 66.403351 
C 134.428002 76.4987 126.419381 88.484448 120.955817 101.674657 
C 115.492254 114.864866 112.68 129.00302 112.68 143.28 
C 112.68 157.55698 115.492254 171.695134 120.955817 184.885343 
C 126.419381 198.075552 134.428002 210.0613 144.523351 220.156649 
C 154.6187 230.251998 166.604448 238.260619 179.794657 243.724183 
C 192.984866 249.187746 207.12302 252 221.4 252 
C 235.67698 252 249.815134 249.187746 263.005343 243.724183 
C 276.195552 238.260619 288.1813 230.251998 298.276649 220.156649 
C 308.371998 210.0613 316.380619 198.075552 321.844183 184.885343 
C 327.307746 171.695134 330.12 157.55698 330.12 143.28 
M 221.4 143.28 
C 221.4 143.28 221.4 143.28 221.4 143.28 
C 221.4 143.28 221.4 143.28 221.4 143.28 
C 221.4 143.28 221.4 143.28 221.4 143.28 
C 221.4 143.28 221.4 143.28 221.4 143.28 
C 221.4 143.28 221.4 143.28 221.4 143.28 
C 221.4 143.28 221.4 143.28 221.4 143.28 
C 221.4 143.28 221.4 143.28 221.4 143.28 
C 221.4 143.28 221.4 143.28 221.4 143.28 
C 221.4 143.28 221.4 143.28 221.4 143.28 
C 221.4 143.28 221.4 143.28 221.4 143.28 
C 221.4 143.28 221.4 143.28 221.4 143.28 
C 221.4 143.28 221.4 143.28 221.4 143.28 
C 221.4 143.28 221.4 143.28 221.4 143.28 
C 221.4 143.28 221.4 143.28 221.4 143.28 
C 221.4 143.28 221.4 143.28 221.4 143.28 
C 221.4 143.28 221.4 143.28 221.4 143.28 
z
" style="fill: #ffffff"/>
   </g>
   <g id="PolyCollection_1">
    <path d="M 236.608158 143.28 
L 244.807117 143.28 
L 253.469222 44.581084 
L 211.673682 136.213416 
L 200.536437 158.438266 
L 240.152977 200.995729 
L 244.807117 143.28 
L 236.608158 143.28 
L 236.608158 143.28 
L 226.414516 158.713094 
L 217.401985 146.184728 
L 211.734407 136.257536 
L 227.228142 125.342822 
L 236.608158 143.28 
z
" clip-path="url(#pe5726729a4)" style="fill: #1f77b4; fill-opacity: 0.5"/>
   </g>
   <g id="matplotlib.axis_1">
    <g id="xtick_1">
     <g id="line2d_1">
      <path d="M 221.4 143.28 
L 330.12 143.28 
" clip-path="url(#pe5726729a4)" style="fill: none; stroke: #b0b0b0; stroke-width: 0.8; stroke-linecap: square"/>
     </g>
     <g id="text_1">
      <text style="font: 10px 'DejaVu Sans', 'Bitstream Vera Sans', 'Computer Modern Sans Serif', 'Lucida Grande', 'Verdana', 'Geneva', 'Lucid', 'Arial', 'Helvetica', 'Avant Garde', sans-serif; text-anchor: middle" x="344.12" y="146.039375" transform="rotate(-0 344.12 146.039375)">SA1</text>
     </g>
    </g>
    <g id="xtick_2">
     <g id="line2d_2">
      <path d="M 221.4 143.28 
L 254.996328 39.881136 
" clip-path="url(#pe5726729a4)" style="fill: none; stroke: #b0b0b0; stroke-width: 0.8; stroke-linecap: square"/>
     </g>
     <g id="text_2">
      <text style="font: 10px 'DejaVu Sans', 'Bitstream Vera Sans', 'Computer Modern Sans Serif', 'Lucida Grande', 'Verdana', 'Geneva', 'Lucid', 'Arial', 'Helvetica', 'Avant Garde', sans-serif; text-anchor: middle" x="259.322566" y="29.325719" transform="rotate(-0 259.322566 29.325719)">SA2</text>
     </g>
    </g>
    <g id="xtick_3">
     <g id="line2d_3">
      <path d="M 221.4 143.28 
L 133.443672 79.375987 
" clip-path="url(#pe5726729a4)" style="fill: none; stroke: #b0b0b0; stroke-width: 0.8; stroke-linecap: square"/>
     </g>
     <g id="text_3">
      <text style="font: 10px 'DejaVu Sans', 'Bitstream Vera Sans', 'Computer Modern Sans Serif', 'Lucida Grande', 'Verdana', 'Geneva', 'Lucid', 'Arial', 'Helvetica', 'Avant Garde', sans-serif; text-anchor: middle" x="122.117434" y="73.906369" transform="rotate(-0 122.117434 73.906369)">RA</text>
     </g>
    </g>
    <g id="xtick_4">
     <g id="line2d_4">
      <path d="M 221.4 143.28 
L 133.443672 207.184013 
" clip-path="url(#pe5726729a4)" style="fill: none; stroke: #b0b0b0; stroke-width: 0.8; stroke-linecap: square"/>
     </g>
     <g id="text_4">
      <text style="font: 10px 'DejaVu Sans', 'Bitstream Vera Sans', 'Computer Modern Sans Serif', 'Lucida Grande', 'Verdana', 'Geneva', 'Lucid', 'Arial', 'Helvetica', 'Avant Garde', sans-serif; text-anchor: middle" x="122.117434" y="218.172381" transform="rotate(-0 122.117434 218.172381)">TG</text>
     </g>
    </g>
    <g id="xtick_5">
     <g id="line2d_5">
      <path d="M 221.4 143.28 
L 254.996328 246.678864 
" clip-path="url(#pe5726729a4)" style="fill: none; stroke: #b0b0b0; stroke-width: 0.8; stroke-linecap: square"/>
     </g>
     <g id="text_5">
      <text style="font: 10px 'DejaVu Sans', 'Bitstream Vera Sans', 'Computer Modern Sans Serif', 'Lucida Grande', 'Verdana', 'Geneva', 'Lucid', 'Arial', 'Helvetica', 'Avant Garde', sans-serif; text-anchor: middle" x="259.322566" y="262.753031" transform="rotate(-0 259.322566 262.753031)">BS</text>
     </g>
    </g>
   </g>
   <g id="matplotlib.axis_2">
    <g id="ytick_1">
     <g id="line2d_6">
      <path d="M 233.315586 143.28 
C 233.315586 141.71526 233.007366 140.165734 232.408566 138.720103 
C 231.809766 137.274471 230.93203 135.960847 229.825592 134.854408 
C 228.719153 133.74797 227.405529 132.870234 225.959897 132.271434 
C 224.514266 131.672634 222.96474 131.364414 221.4 131.364414 
C 219.83526 131.364414 218.285734 131.672634 216.840103 132.271434 
C 215.394471 132.870234 214.080847 133.74797 212.974408 134.854408 
C 211.86797 135.960847 210.990234 137.274471 210.391434 138.720103 
C 209.792634 140.165734 209.484414 141.71526 209.484414 143.28 
C 209.484414 144.84474 209.792634 146.394266 210.391434 147.839897 
C 210.990234 149.285529 211.86797 150.599153 212.974408 151.705592 
C 214.080847 152.81203 215.394471 153.689766 216.840103 154.288566 
C 218.285734 154.887366 219.83526 155.195586 221.4 155.195586 
C 222.96474 155.195586 224.514266 154.887366 225.959897 154.288566 
C 227.405529 153.689766 228.719153 152.81203 229.825592 151.705592 
C 230.93203 150.599153 231.809766 149.285529 232.408566 147.839897 
C 233.007366 146.394266 233.315586 144.84474 233.315586 143.28 
" clip-path="url(#pe5726729a4)" style="fill: none; stroke: #b0b0b0; stroke-width: 0.8; stroke-linecap: square"/>
     </g>
     <g id="text_6">
      <text style="font: 10px 'DejaVu Sans', 'Bitstream Vera Sans', 'Computer Modern Sans Serif', 'Lucida Grande', 'Verdana', 'Geneva', 'Lucid', 'Arial', 'Helvetica', 'Avant Garde', sans-serif; text-anchor: start" x="232.408566" y="136.640415" transform="rotate(-0 232.408566 136.640415)">0</text>
     </g>
    </g>
    <g id="ytick_2">
     <g id="line2d_7">
      <path d="M 245.879235 143.28 
C 245.879235 140.065416 245.246032 136.88209 244.015864 133.912202 
C 242.785696 130.942314 240.982487 128.243621 238.709433 125.970567 
C 236.436379 123.697513 233.737686 121.894304 230.767798 120.664136 
C 227.79791 119.433968 224.614584 118.800765 221.4 118.800765 
C 218.185416 118.800765 215.00209 119.433968 212.032202 120.664136 
C 209.062314 121.894304 206.363621 123.697513 204.090567 125.970567 
C 201.817513 128.243621 200.014304 130.942314 198.784136 133.912202 
C 197.553968 136.88209 196.920765 140.065416 196.920765 143.28 
C 196.920765 146.494584 197.553968 149.67791 198.784136 152.647798 
C 200.014304 155.617686 201.817513 158.316379 204.090567 160.589433 
C 206.363621 162.862487 209.062314 164.665696 212.032202 165.895864 
C 215.00209 167.126032 218.185416 167.759235 221.4 167.759235 
C 224.614584 167.759235 227.79791 167.126032 230.767798 165.895864 
C 233.737686 164.665696 236.436379 162.862487 238.709433 160.589433 
C 240.982487 158.316379 242.785696 155.617686 244.015864 152.647798 
C 245.246032 149.67791 245.879235 146.494584 245.879235 143.28 
" clip-path="url(#pe5726729a4)" style="fill: none; stroke: #b0b0b0; stroke-width: 0.8; stroke-linecap: square"/>
     </g>
     <g id="text_7">
      <text style="font: 10px 'DejaVu Sans', 'Bitstream Vera Sans', 'Computer Modern Sans Serif', 'Lucida Grande', 'Verdana', 'Geneva', 'Lucid', 'Arial', 'Helvetica', 'Avant Garde', sans-serif; text-anchor: start" x="244.015864" y="131.832515" transform="rotate(-0 244.015864 131.832515)">50</text>
     </g>
    </g>
    <g id="ytick_3">
     <g id="line2d_8">
      <path d="M 258.442884 143.28 
C 258.442884 138.415573 257.484698 133.598447 255.623162 129.104302 
C 253.761626 124.610158 251.032943 120.526395 247.593274 117.086726 
C 244.153605 113.647057 240.069842 110.918374 235.575698 109.056838 
C 231.081553 107.195302 226.264427 106.237116 221.4 106.237116 
C 216.535573 106.237116 211.718447 107.195302 207.224302 109.056838 
C 202.730158 110.918374 198.646395 113.647057 195.206726 117.086726 
C 191.767057 120.526395 189.038374 124.610158 187.176838 129.104302 
C 185.315302 133.598447 184.357116 138.415573 184.357116 143.28 
C 184.357116 148.144427 185.315302 152.961553 187.176838 157.455698 
C 189.038374 161.949842 191.767057 166.033605 195.206726 169.473274 
C 198.646395 172.912943 202.730158 175.641626 207.224302 177.503162 
C 211.718447 179.364698 216.535573 180.322884 221.4 180.322884 
C 226.264427 180.322884 231.081553 179.364698 235.575698 177.503162 
C 240.069842 175.641626 244.153605 172.912943 247.593274 169.473274 
C 251.032943 166.033605 253.761626 161.949842 255.623162 157.455698 
C 257.484698 152.961553 258.442884 148.144427 258.442884 143.28 
" clip-path="url(#pe5726729a4)" style="fill: none; stroke: #b0b0b0; stroke-width: 0.8; stroke-linecap: square"/>
     </g>
     <g id="text_8">
      <text style="font: 10px 'DejaVu Sans', 'Bitstream Vera Sans', 'Computer Modern Sans Serif', 'Lucida Grande', 'Verdana', 'Geneva', 'Lucid', 'Arial', 'Helvetica', 'Avant Garde', sans-serif; text-anchor: start" x="255.623162" y="127.024615" transform="rotate(-0 255.623162 127.024615)">100</text>
     </g>
    </g>
    <g id="ytick_4">
     <g id="line2d_9">
      <path d="M 271.006532 143.28 
C 271.006532 136.76573 269.723363 130.314803 267.23046 124.296402 
C 264.737557 118.278001 261.0834 112.809169 256.477115 108.202885 
C 251.870831 103.5966 246.401999 99.942443 240.383598 97.44954 
C 234.365197 94.956637 227.91427 93.673468 221.4 93.673468 
C 214.88573 93.673468 208.434803 94.956637 202.416402 97.44954 
C 196.398001 99.942443 190.929169 103.5966 186.322885 108.202885 
C 181.7166 112.809169 178.062443 118.278001 175.56954 124.296402 
C 173.076637 130.314803 171.793468 136.76573 171.793468 143.28 
C 171.793468 149.79427 173.076637 156.245197 175.56954 162.263598 
C 178.062443 168.281999 181.7166 173.750831 186.322885 178.357115 
C 190.929169 182.9634 196.398001 186.617557 202.416402 189.11046 
C 208.434803 191.603363 214.88573 192.886532 221.4 192.886532 
C 227.91427 192.886532 234.365197 191.603363 240.383598 189.11046 
C 246.401999 186.617557 251.870831 182.9634 256.477115 178.357115 
C 261.0834 173.750831 264.737557 168.281999 267.23046 162.263598 
C 269.723363 156.245197 271.006532 149.79427 271.006532 143.28 
" clip-path="url(#pe5726729a4)" style="fill: none; stroke: #b0b0b0; stroke-width: 0.8; stroke-linecap: square"/>
     </g>
     <g id="text_9">
      <text style="font: 10px 'DejaVu Sans', 'Bitstream Vera Sans', 'Computer Modern Sans Serif', 'Lucida Grande', 'Verdana', 'Geneva', 'Lucid', 'Arial', 'Helvetica', 'Avant Garde', sans-serif; text-anchor: start" x="267.23046" y="122.216714" transform="rotate(-0 267.23046 122.216714)">150</text>
     </g>
    </g>
    <g id="ytick_5">
     <g id="line2d_10">
      <path d="M 283.570181 143.28 
C 283.570181 135.115887 281.962029 127.031159 278.837758 119.488502 
C 275.713487 111.945844 271.133857 105.091943 265.360957 99.319043 
C 259.588057 93.546143 252.734156 88.966513 245.191498 85.842242 
C 237.648841 82.717971 229.564113 81.109819 221.4 81.109819 
C 213.235887 81.109819 205.151159 82.717971 197.608502 85.842242 
C 190.065844 88.966513 183.211943 93.546143 177.439043 99.319043 
C 171.666143 105.091943 167.086513 111.945844 163.962242 119.488502 
C 160.837971 127.031159 159.229819 135.115887 159.229819 143.28 
C 159.229819 151.444113 160.837971 159.528841 163.962242 167.071498 
C 167.086513 174.614156 171.666143 181.468057 177.439043 187.240957 
C 183.211943 193.013857 190.065844 197.593487 197.608502 200.717758 
C 205.151159 203.842029 213.235887 205.450181 221.4 205.450181 
C 229.564113 205.450181 237.648841 203.842029 245.191498 200.717758 
C 252.734156 197.593487 259.588057 193.013857 265.360957 187.240957 
C 271.133857 181.468057 275.713487 174.614156 278.837758 167.071498 
C 281.962029 159.528841 283.570181 151.444113 283.570181 143.28 
" clip-path="url(#pe5726729a4)" style="fill: none; stroke: #b0b0b0; stroke-width: 0.8; stroke-linecap: square"/>
     </g>
     <g id="text_10">
      <text style="font: 10px 'DejaVu Sans', 'Bitstream Vera Sans', 'Computer Modern Sans Serif', 'Lucida Grande', 'Verdana', 'Geneva', 'Lucid', 'Arial', 'Helvetica', 'Avant Garde', sans-serif; text-anchor: start" x="278.837758" y="117.408814" transform="rotate(-0 278.837758 117.408814)">200</text>
     </g>
    </g>
    <g id="ytick_6">
     <g id="line2d_11">
      <path d="M 296.13383 143.28 
C 296.13383 133.466043 294.200694 123.747515 290.445056 114.680601 
C 286.689417 105.613688 281.184313 97.374717 274.244798 90.435202 
C 267.305283 83.495687 259.066312 77.990583 249.999399 74.234944 
C 240.932485 70.479306 231.213957 68.54617 221.4 68.54617 
C 211.586043 68.54617 201.867515 70.479306 192.800601 74.234944 
C 183.733688 77.990583 175.494717 83.495687 168.555202 90.435202 
C 161.615687 97.374717 156.110583 105.613688 152.354944 114.680601 
C 148.599306 123.747515 146.66617 133.466043 146.66617 143.28 
C 146.66617 153.093957 148.599306 162.812485 152.354944 171.879399 
C 156.110583 180.946312 161.615687 189.185283 168.555202 196.124798 
C 175.494717 203.064313 183.733688 208.569417 192.800601 212.325056 
C 201.867515 216.080694 211.586043 218.01383 221.4 218.01383 
C 231.213957 218.01383 240.932485 216.080694 249.999399 212.325056 
C 259.066312 208.569417 267.305283 203.064313 274.244798 196.124798 
C 281.184313 189.185283 286.689417 180.946312 290.445056 171.879399 
C 294.200694 162.812485 296.13383 153.093957 296.13383 143.28 
" clip-path="url(#pe5726729a4)" style="fill: none; stroke: #b0b0b0; stroke-width: 0.8; stroke-linecap: square"/>
     </g>
     <g id="text_11">
      <text style="font: 10px 'DejaVu Sans', 'Bitstream Vera Sans', 'Computer Modern Sans Serif', 'Lucida Grande', 'Verdana', 'Geneva', 'Lucid', 'Arial', 'Helvetica', 'Avant Garde', sans-serif; text-anchor: start" x="290.445056" y="112.600914" transform="rotate(-0 290.445056 112.600914)">250</text>
     </g>
    </g>
    <g id="ytick_7">
     <g id="line2d_12">
      <path d="M 308.697479 143.28 
C 308.697479 131.8162 306.43936 120.463871 302.052354 109.872701 
C 297.665348 99.281531 291.23477 89.657491 283.128639 81.551361 
C 275.022509 73.44523 265.398469 67.014652 254.807299 62.627646 
C 244.216129 58.24064 232.8638 55.982521 221.4 55.982521 
C 209.9362 55.982521 198.583871 58.24064 187.992701 62.627646 
C 177.401531 67.014652 167.777491 73.44523 159.671361 81.551361 
C 151.56523 89.657491 145.134652 99.281531 140.747646 109.872701 
C 136.36064 120.463871 134.102521 131.8162 134.102521 143.28 
C 134.102521 154.7438 136.36064 166.096129 140.747646 176.687299 
C 145.134652 187.278469 151.56523 196.902509 159.671361 205.008639 
C 167.777491 213.11477 177.401531 219.545348 187.992701 223.932354 
C 198.583871 228.31936 209.9362 230.577479 221.4 230.577479 
C 232.8638 230.577479 244.216129 228.31936 254.807299 223.932354 
C 265.398469 219.545348 275.022509 213.11477 283.128639 205.008639 
C 291.23477 196.902509 297.665348 187.278469 302.052354 176.687299 
C 306.43936 166.096129 308.697479 154.7438 308.697479 143.28 
" clip-path="url(#pe5726729a4)" style="fill: none; stroke: #b0b0b0; stroke-width: 0.8; stroke-linecap: square"/>
     </g>
     <g id="text_12">
      <text style="font: 10px 'DejaVu Sans', 'Bitstream Vera Sans', 'Computer Modern Sans Serif', 'Lucida Grande', 'Verdana', 'Geneva', 'Lucid', 'Arial', 'Helvetica', 'Avant Garde', sans-serif; text-anchor: start" x="302.052354" y="107.793014" transform="rotate(-0 302.052354 107.793014)">300</text>
     </g>
    </g>
    <g id="ytick_8">
     <g id="line2d_13">
      <path d="M 321.261128 143.28 
C 321.261128 130.166357 318.678026 117.180227 313.659652 105.064801 
C 308.641278 92.949374 301.285226 81.940266 292.01248 72.66752 
C 282.739734 63.394774 271.730626 56.038722 259.615199 51.020348 
C 247.499773 46.001974 234.513643 43.418872 221.4 43.418872 
C 208.286357 43.418872 195.300227 46.001974 183.184801 51.020348 
C 171.069374 56.038722 160.060266 63.394774 150.78752 72.66752 
C 141.514774 81.940266 134.158722 92.949374 129.140348 105.064801 
C 124.121974 117.180227 121.538872 130.166357 121.538872 143.28 
C 121.538872 156.393643 124.121974 169.379773 129.140348 181.495199 
C 134.158722 193.610626 141.514774 204.619734 150.78752 213.89248 
C 160.060266 223.165226 171.069374 230.521278 183.184801 235.539652 
C 195.300227 240.558026 208.286357 243.141128 221.4 243.141128 
C 234.513643 243.141128 247.499773 240.558026 259.615199 235.539652 
C 271.730626 230.521278 282.739734 223.165226 292.01248 213.89248 
C 301.285226 204.619734 308.641278 193.610626 313.659652 181.495199 
C 318.678026 169.379773 321.261128 156.393643 321.261128 143.28 
" clip-path="url(#pe5726729a4)" style="fill: none; stroke: #b0b0b0; stroke-width: 0.8; stroke-linecap: square"/>
     </g>
     <g id="text_13">
      <text style="font: 10px 'DejaVu Sans', 'Bitstream Vera Sans', 'Computer Modern Sans Serif', 'Lucida Grande', 'Verdana', 'Geneva', 'Lucid', 'Arial', 'Helvetica', 'Avant Garde', sans-serif; text-anchor: start" x="313.659652" y="102.985113" transform="rotate(-0 313.659652 102.985113)">350</text>
     </g>
    </g>
   </g>
   <g id="line2d_14">
    <path d="M 240.707638 143.28 
L 240.348682 84.961953 
L 211.704045 136.235476 
L 208.969211 152.311497 
L 233.283747 179.854412 
L 240.707638 143.28 
" clip-path="url(#pe5726729a4)" style="fill: none; stroke: #1f77b4; stroke-width: 1.5; stroke-linecap: square"/>
   </g>
   <g id="patch_3">
    <path d="M 330.12 143.28 
C 330.12 129.00302 327.307746 114.864866 321.844183 101.674657 
C 316.380619 88.484448 308.371998 76.4987 298.276649 66.403351 
C 288.1813 56.308002 276.195552 48.299381 263.005343 42.835817 
C 249.815134 37.372254 235.67698 34.56 221.4 34.56 
C 207.12302 34.56 192.984866 37.372254 179.794657 42.835817 
C 166.604448 48.299381 154.6187 56.308002 144.523351 66.403351 
C 134.428002 76.4987 126.419381 88.484448 120.955817 101.674657 
C 115.492254 114.864866 112.68 129.00302 112.68 143.28 
C 112.68 157.55698 115.492254 171.695134 120.955817 184.885343 
C 126.419381 198.075552 134.428002 210.0613 144.523351 220.156649 
C 154.6187 230.251998 166.604448 238.260619 179.794657 243.724183 
C 192.984866 249.187746 207.12302 252 221.4 252 
C 235.67698 252 249.815134 249.187746 263.005343 243.724183 
C 276.195552 238.260619 288.1813 230.251998 298.276649 220.156649 
C 308.371998 210.0613 316.380619 198.075552 321.844183 184.885343 
C 327.307746 171.695134 330.12 157.55698 330.12 143.28 
" style="fill: none; stroke: #000000; stroke-width: 0.8; stroke-linejoin: miter; stroke-linecap: square"/>
   </g>
   <g id="text_14">
    <text style="font: 12px 'DejaVu Sans', 'Bitstream Vera Sans', 'Computer Modern Sans Serif', 'Lucida Grande', 'Verdana', 'Geneva', 'Lucid', 'Arial', 'Helvetica', 'Avant Garde', sans-serif; text-anchor: middle" x="221.4" y="15.727282" transform="rotate(-0 221.4 15.727282)">0_amplitude</text>
   </g>
  </g>
 </g>
 <defs>
  <clipPath id="pe5726729a4">
   <path d="M 330.12 143.28 
C 330.12 129.00302 327.307746 114.864866 321.844183 101.674657 
C 316.380619 88.484448 308.371998 76.4987 298.276649 66.403351 
C 288.1813 56.308002 276.195552 48.299381 263.005343 42.835817 
C 249.815134 37.372254 235.67698 34.56 221.4 34.56 
C 207.12302 34.56 192.984866 37.372254 179.794657 42.835817 
C 166.604448 48.299381 154.6187 56.308002 144.523351 66.403351 
C 134.428002 76.4987 126.419381 88.484448 120.955817 101.674657 
C 115.492254 114.864866 112.68 129.00302 112.68 143.28 
C 112.68 157.55698 115.492254 171.695134 120.955817 184.885343 
C 126.419381 198.075552 134.428002 210.0613 144.523351 220.156649 
C 154.6187 230.251998 166.604448 238.260619 179.794657 243.724183 
C 192.984866 249.187746 207.12302 252 221.4 252 
C 235.67698 252 249.815134 249.187746 263.005343 243.724183 
C 276.195552 238.260619 288.1813 230.251998 298.276649 220.156649 
C 308.371998 210.0613 316.380619 198.075552 321.844183 184.885343 
C 327.307746 171.695134 330.12 157.55698 330.12 143.28 
M 221.4 143.28 
C 221.4 143.28 221.4 143.28 221.4 143.28 
C 221.4 143.28 221.4 143.28 221.4 143.28 
C 221.4 143.28 221.4 143.28 221.4 143.28 
C 221.4 143.28 221.4 143.28 221.4 143.28 
C 221.4 143.28 221.4 143.28 221.4 143.28 
C 221.4 143.28 221.4 143.28 221.4 143.28 
C 221.4 143.28 221.4 143.28 221.4 143.28 
C 221.4 143.28 221.4 143.28 221.4 143.28 
C 221.4 143.28 221.4 143.28 221.4 143.28 
C 221.4 143.28 221.4 143.28 221.4 143.28 
C 221.4 143.28 221.4 143.28 221.4 143.28 
C 221.4 143.28 221.4 143.28 221.4 143.28 
C 221.4 143.28 221.4 143.28 221.4 143.28 
C 221.4 143.28 221.4 143.28 221.4 143.28 
C 221.4 143.28 221.4 143.28 221.4 143.28 
C 221.4 143.28 221.4 143.28 221.4 143.28 
z
"/>
  </clipPath>
 </defs>
</svg>
